<?xml version="1.0" encoding="UTF-8"?>
<svg xmlns="http://www.w3.org/2000/svg" xmlns:xlink="http://www.w3.org/1999/xlink" width="600pt" height="47pt" viewBox="0 0 600 47" version="1.1">
<defs>
<clipPath id="clip1">
  <path d="M 10 5.28125 L 32 5.28125 L 32 28 L 10 28 Z M 10 5.28125 "/>
</clipPath>
<clipPath id="clip2">
  <path d="M 83.039063 5.28125 L 105 5.28125 L 105 28 L 83.039063 28 Z M 83.039063 5.28125 "/>
</clipPath>
<clipPath id="clip3">
  <path d="M 157 5.28125 L 179 5.28125 L 179 28 L 157 28 Z M 157 5.28125 "/>
</clipPath>
<clipPath id="clip4">
  <path d="M 231 5.28125 L 253 5.28125 L 253 28 L 231 28 Z M 231 5.28125 "/>
</clipPath>
<clipPath id="clip5">
  <path d="M 304 5.28125 L 326 5.28125 L 326 28 L 304 28 Z M 304 5.28125 "/>
</clipPath>
<clipPath id="clip6">
  <path d="M 378 5.28125 L 400 5.28125 L 400 28 L 378 28 Z M 378 5.28125 "/>
</clipPath>
<clipPath id="clip7">
  <path d="M 451.199219 5.28125 L 474 5.28125 L 474 28 L 451.199219 28 Z M 451.199219 5.28125 "/>
</clipPath>
<clipPath id="clip8">
  <path d="M 525 5.28125 L 547 5.28125 L 547 28 L 525 28 Z M 525 5.28125 "/>
</clipPath>
</defs>
<g id="surface42">
<path style=" stroke:none;fill-rule:nonzero;fill:rgb(99.998474%,99.998474%,99.998474%);fill-opacity:1;" d="M 10.785156 26.320313 L 10.785156 6.664063 L 30.441406 6.664063 L 30.441406 26.320313 Z M 10.785156 26.320313 "/>
<g clip-path="url(#clip1)" clip-rule="nonzero">
<path style="fill:none;stroke-width:1;stroke-linecap:square;stroke-linejoin:miter;stroke:rgb(99.998474%,99.998474%,99.998474%);stroke-opacity:1;stroke-miterlimit:3.239307;" d="M 10.785156 26.320313 L 10.785156 6.664063 L 30.441406 6.664063 L 30.441406 26.320313 Z M 10.785156 26.320313 "/>
</g>
<path style="fill:none;stroke-width:0.2;stroke-linecap:square;stroke-linejoin:miter;stroke:rgb(0%,0%,0%);stroke-opacity:1;stroke-miterlimit:3.25;" d="M 10.785156 26.320313 L 10.785156 6.664063 L 30.441406 6.664063 L 30.441406 26.320313 Z M 10.785156 26.320313 "/>
<path style="fill-rule:nonzero;fill:rgb(99.998474%,99.998474%,99.998474%);fill-opacity:1;stroke-width:0.2;stroke-linecap:square;stroke-linejoin:miter;stroke:rgb(99.998474%,99.998474%,99.998474%);stroke-opacity:1;stroke-miterlimit:3.25;" d="M 32.40625 26.320313 L 32.40625 6.664063 L 52.0625 6.664063 L 52.0625 26.320313 Z M 32.40625 26.320313 "/>
<path style="fill:none;stroke-width:0.2;stroke-linecap:square;stroke-linejoin:miter;stroke:rgb(0%,0%,0%);stroke-opacity:1;stroke-miterlimit:3.25;" d="M 32.40625 26.320313 L 32.40625 6.664063 L 52.0625 6.664063 L 52.0625 26.320313 Z M 32.40625 26.320313 "/>
<path style="fill-rule:nonzero;fill:rgb(99.998474%,99.998474%,99.998474%);fill-opacity:1;stroke-width:0.2;stroke-linecap:square;stroke-linejoin:miter;stroke:rgb(99.998474%,99.998474%,99.998474%);stroke-opacity:1;stroke-miterlimit:3.25;" d="M 54.027344 26.320313 L 54.027344 6.664063 L 73.683594 6.664063 L 73.683594 26.320313 Z M 54.027344 26.320313 "/>
<path style="fill:none;stroke-width:0.2;stroke-linecap:square;stroke-linejoin:miter;stroke:rgb(0%,0%,0%);stroke-opacity:1;stroke-miterlimit:3.25;" d="M 54.027344 26.320313 L 54.027344 6.664063 L 73.683594 6.664063 L 73.683594 26.320313 Z M 54.027344 26.320313 "/>
<path style="fill-rule:nonzero;fill:rgb(99.998474%,0%,0%);fill-opacity:1;stroke-width:0.2;stroke-linecap:square;stroke-linejoin:miter;stroke:rgb(99.998474%,0%,0%);stroke-opacity:1;stroke-miterlimit:3.25;" d="M 36.335938 40.082031 L 36.335938 28.285156 L 48.132813 28.285156 L 48.132813 40.082031 Z M 36.335938 40.082031 "/>
<path style="fill:none;stroke-width:0.2;stroke-linecap:square;stroke-linejoin:miter;stroke:rgb(0%,0%,0%);stroke-opacity:1;stroke-miterlimit:3.25;" d="M 36.335938 40.082031 L 36.335938 28.285156 L 48.132813 28.285156 L 48.132813 40.082031 Z M 36.335938 40.082031 "/>
<path style="fill-rule:nonzero;fill:rgb(0%,0%,66.665649%);fill-opacity:1;stroke-width:0.2;stroke-linecap:square;stroke-linejoin:miter;stroke:rgb(0%,0%,66.665649%);stroke-opacity:1;stroke-miterlimit:3.25;" d="M 22.578125 40.082031 L 22.578125 28.285156 L 34.371094 28.285156 L 34.371094 40.082031 Z M 22.578125 40.082031 "/>
<path style="fill:none;stroke-width:0.2;stroke-linecap:square;stroke-linejoin:miter;stroke:rgb(0%,0%,0%);stroke-opacity:1;stroke-miterlimit:3.25;" d="M 22.578125 40.082031 L 22.578125 28.285156 L 34.371094 28.285156 L 34.371094 40.082031 Z M 22.578125 40.082031 "/>
<path style="fill-rule:nonzero;fill:rgb(0%,0%,66.665649%);fill-opacity:1;stroke-width:0.2;stroke-linecap:square;stroke-linejoin:miter;stroke:rgb(0%,0%,66.665649%);stroke-opacity:1;stroke-miterlimit:3.25;" d="M 50.097656 40.082031 L 50.097656 28.285156 L 61.890625 28.285156 L 61.890625 40.082031 Z M 50.097656 40.082031 "/>
<path style="fill:none;stroke-width:0.2;stroke-linecap:square;stroke-linejoin:miter;stroke:rgb(0%,0%,0%);stroke-opacity:1;stroke-miterlimit:3.25;" d="M 50.097656 40.082031 L 50.097656 28.285156 L 61.890625 28.285156 L 61.890625 40.082031 Z M 50.097656 40.082031 "/>
<path style=" stroke:none;fill-rule:nonzero;fill:rgb(99.998474%,99.998474%,99.998474%);fill-opacity:1;" d="M 84.433594 26.320313 L 84.433594 6.664063 L 104.089844 6.664063 L 104.089844 26.320313 Z M 84.433594 26.320313 "/>
<g clip-path="url(#clip2)" clip-rule="nonzero">
<path style="fill:none;stroke-width:1;stroke-linecap:square;stroke-linejoin:miter;stroke:rgb(99.998474%,99.998474%,99.998474%);stroke-opacity:1;stroke-miterlimit:3.239307;" d="M 84.433594 26.320313 L 84.433594 6.664063 L 104.089844 6.664063 L 104.089844 26.320313 Z M 84.433594 26.320313 "/>
</g>
<path style="fill:none;stroke-width:0.2;stroke-linecap:square;stroke-linejoin:miter;stroke:rgb(0%,0%,0%);stroke-opacity:1;stroke-miterlimit:3.25;" d="M 84.433594 26.320313 L 84.433594 6.664063 L 104.089844 6.664063 L 104.089844 26.320313 Z M 84.433594 26.320313 "/>
<path style="fill-rule:nonzero;fill:rgb(99.998474%,99.998474%,99.998474%);fill-opacity:1;stroke-width:0.2;stroke-linecap:square;stroke-linejoin:miter;stroke:rgb(99.998474%,99.998474%,99.998474%);stroke-opacity:1;stroke-miterlimit:3.25;" d="M 106.054688 26.320313 L 106.054688 6.664063 L 125.710938 6.664063 L 125.710938 26.320313 Z M 106.054688 26.320313 "/>
<path style="fill:none;stroke-width:0.2;stroke-linecap:square;stroke-linejoin:miter;stroke:rgb(0%,0%,0%);stroke-opacity:1;stroke-miterlimit:3.25;" d="M 106.054688 26.320313 L 106.054688 6.664063 L 125.710938 6.664063 L 125.710938 26.320313 Z M 106.054688 26.320313 "/>
<path style="fill-rule:nonzero;fill:rgb(0%,0%,0%);fill-opacity:1;stroke-width:0.2;stroke-linecap:square;stroke-linejoin:miter;stroke:rgb(0%,0%,0%);stroke-opacity:1;stroke-miterlimit:3.25;" d="M 127.675781 26.320313 L 127.675781 6.664063 L 147.332031 6.664063 L 147.332031 26.320313 Z M 127.675781 26.320313 "/>
<path style="fill:none;stroke-width:0.2;stroke-linecap:square;stroke-linejoin:miter;stroke:rgb(0%,0%,0%);stroke-opacity:1;stroke-miterlimit:3.25;" d="M 127.675781 26.320313 L 127.675781 6.664063 L 147.332031 6.664063 L 147.332031 26.320313 Z M 127.675781 26.320313 "/>
<path style="fill-rule:nonzero;fill:rgb(99.998474%,0%,0%);fill-opacity:1;stroke-width:0.2;stroke-linecap:square;stroke-linejoin:miter;stroke:rgb(99.998474%,0%,0%);stroke-opacity:1;stroke-miterlimit:3.25;" d="M 109.984375 40.082031 L 109.984375 28.285156 L 121.777344 28.285156 L 121.777344 40.082031 Z M 109.984375 40.082031 "/>
<path style="fill:none;stroke-width:0.2;stroke-linecap:square;stroke-linejoin:miter;stroke:rgb(0%,0%,0%);stroke-opacity:1;stroke-miterlimit:3.25;" d="M 109.984375 40.082031 L 109.984375 28.285156 L 121.777344 28.285156 L 121.777344 40.082031 Z M 109.984375 40.082031 "/>
<path style="fill-rule:nonzero;fill:rgb(0%,0%,66.665649%);fill-opacity:1;stroke-width:0.2;stroke-linecap:square;stroke-linejoin:miter;stroke:rgb(0%,0%,66.665649%);stroke-opacity:1;stroke-miterlimit:3.25;" d="M 96.226563 40.082031 L 96.226563 28.285156 L 108.019531 28.285156 L 108.019531 40.082031 Z M 96.226563 40.082031 "/>
<path style="fill:none;stroke-width:0.2;stroke-linecap:square;stroke-linejoin:miter;stroke:rgb(0%,0%,0%);stroke-opacity:1;stroke-miterlimit:3.25;" d="M 96.226563 40.082031 L 96.226563 28.285156 L 108.019531 28.285156 L 108.019531 40.082031 Z M 96.226563 40.082031 "/>
<path style="fill-rule:nonzero;fill:rgb(0%,0%,66.665649%);fill-opacity:1;stroke-width:0.2;stroke-linecap:square;stroke-linejoin:miter;stroke:rgb(0%,0%,66.665649%);stroke-opacity:1;stroke-miterlimit:3.25;" d="M 123.746094 40.082031 L 123.746094 28.285156 L 135.539063 28.285156 L 135.539063 40.082031 Z M 123.746094 40.082031 "/>
<path style="fill:none;stroke-width:0.2;stroke-linecap:square;stroke-linejoin:miter;stroke:rgb(0%,0%,0%);stroke-opacity:1;stroke-miterlimit:3.25;" d="M 123.746094 40.082031 L 123.746094 28.285156 L 135.539063 28.285156 L 135.539063 40.082031 Z M 123.746094 40.082031 "/>
<path style=" stroke:none;fill-rule:nonzero;fill:rgb(99.998474%,99.998474%,99.998474%);fill-opacity:1;" d="M 158.078125 26.320313 L 158.078125 6.664063 L 177.734375 6.664063 L 177.734375 26.320313 Z M 158.078125 26.320313 "/>
<g clip-path="url(#clip3)" clip-rule="nonzero">
<path style="fill:none;stroke-width:1;stroke-linecap:square;stroke-linejoin:miter;stroke:rgb(99.998474%,99.998474%,99.998474%);stroke-opacity:1;stroke-miterlimit:3.239307;" d="M 158.078125 26.320313 L 158.078125 6.664063 L 177.734375 6.664063 L 177.734375 26.320313 Z M 158.078125 26.320313 "/>
</g>
<path style="fill:none;stroke-width:0.2;stroke-linecap:square;stroke-linejoin:miter;stroke:rgb(0%,0%,0%);stroke-opacity:1;stroke-miterlimit:3.25;" d="M 158.078125 26.320313 L 158.078125 6.664063 L 177.734375 6.664063 L 177.734375 26.320313 Z M 158.078125 26.320313 "/>
<path style="fill-rule:nonzero;fill:rgb(0%,0%,0%);fill-opacity:1;stroke-width:0.2;stroke-linecap:square;stroke-linejoin:miter;stroke:rgb(0%,0%,0%);stroke-opacity:1;stroke-miterlimit:3.25;" d="M 179.699219 26.320313 L 179.699219 6.664063 L 199.355469 6.664063 L 199.355469 26.320313 Z M 179.699219 26.320313 "/>
<path style="fill:none;stroke-width:0.2;stroke-linecap:square;stroke-linejoin:miter;stroke:rgb(0%,0%,0%);stroke-opacity:1;stroke-miterlimit:3.25;" d="M 179.699219 26.320313 L 179.699219 6.664063 L 199.355469 6.664063 L 199.355469 26.320313 Z M 179.699219 26.320313 "/>
<path style="fill-rule:nonzero;fill:rgb(99.998474%,99.998474%,99.998474%);fill-opacity:1;stroke-width:0.2;stroke-linecap:square;stroke-linejoin:miter;stroke:rgb(99.998474%,99.998474%,99.998474%);stroke-opacity:1;stroke-miterlimit:3.25;" d="M 201.324219 26.320313 L 201.324219 6.664063 L 220.980469 6.664063 L 220.980469 26.320313 Z M 201.324219 26.320313 "/>
<path style="fill:none;stroke-width:0.2;stroke-linecap:square;stroke-linejoin:miter;stroke:rgb(0%,0%,0%);stroke-opacity:1;stroke-miterlimit:3.25;" d="M 201.324219 26.320313 L 201.324219 6.664063 L 220.980469 6.664063 L 220.980469 26.320313 Z M 201.324219 26.320313 "/>
<path style="fill-rule:nonzero;fill:rgb(99.998474%,0%,0%);fill-opacity:1;stroke-width:0.2;stroke-linecap:square;stroke-linejoin:miter;stroke:rgb(99.998474%,0%,0%);stroke-opacity:1;stroke-miterlimit:3.25;" d="M 183.632813 40.082031 L 183.632813 28.285156 L 195.425781 28.285156 L 195.425781 40.082031 Z M 183.632813 40.082031 "/>
<path style="fill:none;stroke-width:0.2;stroke-linecap:square;stroke-linejoin:miter;stroke:rgb(0%,0%,0%);stroke-opacity:1;stroke-miterlimit:3.25;" d="M 183.632813 40.082031 L 183.632813 28.285156 L 195.425781 28.285156 L 195.425781 40.082031 Z M 183.632813 40.082031 "/>
<path style="fill-rule:nonzero;fill:rgb(0%,0%,66.665649%);fill-opacity:1;stroke-width:0.2;stroke-linecap:square;stroke-linejoin:miter;stroke:rgb(0%,0%,66.665649%);stroke-opacity:1;stroke-miterlimit:3.25;" d="M 169.871094 40.082031 L 169.871094 28.285156 L 181.667969 28.285156 L 181.667969 40.082031 Z M 169.871094 40.082031 "/>
<path style="fill:none;stroke-width:0.2;stroke-linecap:square;stroke-linejoin:miter;stroke:rgb(0%,0%,0%);stroke-opacity:1;stroke-miterlimit:3.25;" d="M 169.871094 40.082031 L 169.871094 28.285156 L 181.667969 28.285156 L 181.667969 40.082031 Z M 169.871094 40.082031 "/>
<path style="fill-rule:nonzero;fill:rgb(0%,0%,66.665649%);fill-opacity:1;stroke-width:0.2;stroke-linecap:square;stroke-linejoin:miter;stroke:rgb(0%,0%,66.665649%);stroke-opacity:1;stroke-miterlimit:3.25;" d="M 197.390625 40.082031 L 197.390625 28.285156 L 209.183594 28.285156 L 209.183594 40.082031 Z M 197.390625 40.082031 "/>
<path style="fill:none;stroke-width:0.2;stroke-linecap:square;stroke-linejoin:miter;stroke:rgb(0%,0%,0%);stroke-opacity:1;stroke-miterlimit:3.25;" d="M 197.390625 40.082031 L 197.390625 28.285156 L 209.183594 28.285156 L 209.183594 40.082031 Z M 197.390625 40.082031 "/>
<path style=" stroke:none;fill-rule:nonzero;fill:rgb(99.998474%,99.998474%,99.998474%);fill-opacity:1;" d="M 231.726563 26.320313 L 231.726563 6.664063 L 251.382813 6.664063 L 251.382813 26.320313 Z M 231.726563 26.320313 "/>
<g clip-path="url(#clip4)" clip-rule="nonzero">
<path style="fill:none;stroke-width:1;stroke-linecap:square;stroke-linejoin:miter;stroke:rgb(99.998474%,99.998474%,99.998474%);stroke-opacity:1;stroke-miterlimit:3.239307;" d="M 231.726563 26.320313 L 231.726563 6.664063 L 251.382813 6.664063 L 251.382813 26.320313 Z M 231.726563 26.320313 "/>
</g>
<path style="fill:none;stroke-width:0.2;stroke-linecap:square;stroke-linejoin:miter;stroke:rgb(0%,0%,0%);stroke-opacity:1;stroke-miterlimit:3.25;" d="M 231.726563 26.320313 L 231.726563 6.664063 L 251.382813 6.664063 L 251.382813 26.320313 Z M 231.726563 26.320313 "/>
<path style="fill-rule:nonzero;fill:rgb(0%,0%,0%);fill-opacity:1;stroke-width:0.2;stroke-linecap:square;stroke-linejoin:miter;stroke:rgb(0%,0%,0%);stroke-opacity:1;stroke-miterlimit:3.25;" d="M 253.347656 26.320313 L 253.347656 6.664063 L 273.003906 6.664063 L 273.003906 26.320313 Z M 253.347656 26.320313 "/>
<path style="fill:none;stroke-width:0.2;stroke-linecap:square;stroke-linejoin:miter;stroke:rgb(0%,0%,0%);stroke-opacity:1;stroke-miterlimit:3.25;" d="M 253.347656 26.320313 L 253.347656 6.664063 L 273.003906 6.664063 L 273.003906 26.320313 Z M 253.347656 26.320313 "/>
<path style="fill-rule:nonzero;fill:rgb(0%,0%,0%);fill-opacity:1;stroke-width:0.2;stroke-linecap:square;stroke-linejoin:miter;stroke:rgb(0%,0%,0%);stroke-opacity:1;stroke-miterlimit:3.25;" d="M 274.96875 26.320313 L 274.96875 6.664063 L 294.625 6.664063 L 294.625 26.320313 Z M 274.96875 26.320313 "/>
<path style="fill:none;stroke-width:0.2;stroke-linecap:square;stroke-linejoin:miter;stroke:rgb(0%,0%,0%);stroke-opacity:1;stroke-miterlimit:3.25;" d="M 274.96875 26.320313 L 274.96875 6.664063 L 294.625 6.664063 L 294.625 26.320313 Z M 274.96875 26.320313 "/>
<path style="fill-rule:nonzero;fill:rgb(0%,66.665649%,0%);fill-opacity:1;stroke-width:0.2;stroke-linecap:square;stroke-linejoin:miter;stroke:rgb(0%,66.665649%,0%);stroke-opacity:1;stroke-miterlimit:3.25;" d="M 257.28125 40.082031 L 257.28125 28.285156 L 269.074219 28.285156 L 269.074219 40.082031 Z M 257.28125 40.082031 "/>
<path style="fill:none;stroke-width:0.2;stroke-linecap:square;stroke-linejoin:miter;stroke:rgb(0%,0%,0%);stroke-opacity:1;stroke-miterlimit:3.25;" d="M 257.28125 40.082031 L 257.28125 28.285156 L 269.074219 28.285156 L 269.074219 40.082031 Z M 257.28125 40.082031 "/>
<path style="fill-rule:nonzero;fill:rgb(0%,0%,66.665649%);fill-opacity:1;stroke-width:0.2;stroke-linecap:square;stroke-linejoin:miter;stroke:rgb(0%,0%,66.665649%);stroke-opacity:1;stroke-miterlimit:3.25;" d="M 243.519531 40.082031 L 243.519531 28.285156 L 255.3125 28.285156 L 255.3125 40.082031 Z M 243.519531 40.082031 "/>
<path style="fill:none;stroke-width:0.2;stroke-linecap:square;stroke-linejoin:miter;stroke:rgb(0%,0%,0%);stroke-opacity:1;stroke-miterlimit:3.25;" d="M 243.519531 40.082031 L 243.519531 28.285156 L 255.3125 28.285156 L 255.3125 40.082031 Z M 243.519531 40.082031 "/>
<path style="fill-rule:nonzero;fill:rgb(99.998474%,0%,0%);fill-opacity:1;stroke-width:0.2;stroke-linecap:square;stroke-linejoin:miter;stroke:rgb(99.998474%,0%,0%);stroke-opacity:1;stroke-miterlimit:3.25;" d="M 271.039063 40.082031 L 271.039063 28.285156 L 282.832031 28.285156 L 282.832031 40.082031 Z M 271.039063 40.082031 "/>
<path style="fill:none;stroke-width:0.2;stroke-linecap:square;stroke-linejoin:miter;stroke:rgb(0%,0%,0%);stroke-opacity:1;stroke-miterlimit:3.25;" d="M 271.039063 40.082031 L 271.039063 28.285156 L 282.832031 28.285156 L 282.832031 40.082031 Z M 271.039063 40.082031 "/>
<path style=" stroke:none;fill-rule:nonzero;fill:rgb(0%,0%,0%);fill-opacity:1;" d="M 305.375 26.320313 L 305.375 6.664063 L 325.03125 6.664063 L 325.03125 26.320313 Z M 305.375 26.320313 "/>
<g clip-path="url(#clip5)" clip-rule="nonzero">
<path style="fill:none;stroke-width:1;stroke-linecap:square;stroke-linejoin:miter;stroke:rgb(0%,0%,0%);stroke-opacity:1;stroke-miterlimit:3.239307;" d="M 305.375 26.320313 L 305.375 6.664063 L 325.03125 6.664063 L 325.03125 26.320313 Z M 305.375 26.320313 "/>
</g>
<path style="fill:none;stroke-width:0.2;stroke-linecap:square;stroke-linejoin:miter;stroke:rgb(0%,0%,0%);stroke-opacity:1;stroke-miterlimit:3.25;" d="M 305.375 26.320313 L 305.375 6.664063 L 325.03125 6.664063 L 325.03125 26.320313 Z M 305.375 26.320313 "/>
<path style="fill-rule:nonzero;fill:rgb(99.998474%,99.998474%,99.998474%);fill-opacity:1;stroke-width:0.2;stroke-linecap:square;stroke-linejoin:miter;stroke:rgb(99.998474%,99.998474%,99.998474%);stroke-opacity:1;stroke-miterlimit:3.25;" d="M 326.996094 26.320313 L 326.996094 6.664063 L 346.652344 6.664063 L 346.652344 26.320313 Z M 326.996094 26.320313 "/>
<path style="fill:none;stroke-width:0.2;stroke-linecap:square;stroke-linejoin:miter;stroke:rgb(0%,0%,0%);stroke-opacity:1;stroke-miterlimit:3.25;" d="M 326.996094 26.320313 L 326.996094 6.664063 L 346.652344 6.664063 L 346.652344 26.320313 Z M 326.996094 26.320313 "/>
<path style="fill-rule:nonzero;fill:rgb(99.998474%,99.998474%,99.998474%);fill-opacity:1;stroke-width:0.2;stroke-linecap:square;stroke-linejoin:miter;stroke:rgb(99.998474%,99.998474%,99.998474%);stroke-opacity:1;stroke-miterlimit:3.25;" d="M 348.617188 26.320313 L 348.617188 6.664063 L 368.273438 6.664063 L 368.273438 26.320313 Z M 348.617188 26.320313 "/>
<path style="fill:none;stroke-width:0.2;stroke-linecap:square;stroke-linejoin:miter;stroke:rgb(0%,0%,0%);stroke-opacity:1;stroke-miterlimit:3.25;" d="M 348.617188 26.320313 L 348.617188 6.664063 L 368.273438 6.664063 L 368.273438 26.320313 Z M 348.617188 26.320313 "/>
<path style="fill-rule:nonzero;fill:rgb(0%,66.665649%,0%);fill-opacity:1;stroke-width:0.2;stroke-linecap:square;stroke-linejoin:miter;stroke:rgb(0%,66.665649%,0%);stroke-opacity:1;stroke-miterlimit:3.25;" d="M 330.925781 40.082031 L 330.925781 28.285156 L 342.71875 28.285156 L 342.71875 40.082031 Z M 330.925781 40.082031 "/>
<path style="fill:none;stroke-width:0.2;stroke-linecap:square;stroke-linejoin:miter;stroke:rgb(0%,0%,0%);stroke-opacity:1;stroke-miterlimit:3.25;" d="M 330.925781 40.082031 L 330.925781 28.285156 L 342.71875 28.285156 L 342.71875 40.082031 Z M 330.925781 40.082031 "/>
<path style="fill-rule:nonzero;fill:rgb(0%,0%,66.665649%);fill-opacity:1;stroke-width:0.2;stroke-linecap:square;stroke-linejoin:miter;stroke:rgb(0%,0%,66.665649%);stroke-opacity:1;stroke-miterlimit:3.25;" d="M 317.167969 40.082031 L 317.167969 28.285156 L 328.960938 28.285156 L 328.960938 40.082031 Z M 317.167969 40.082031 "/>
<path style="fill:none;stroke-width:0.2;stroke-linecap:square;stroke-linejoin:miter;stroke:rgb(0%,0%,0%);stroke-opacity:1;stroke-miterlimit:3.25;" d="M 317.167969 40.082031 L 317.167969 28.285156 L 328.960938 28.285156 L 328.960938 40.082031 Z M 317.167969 40.082031 "/>
<path style="fill-rule:nonzero;fill:rgb(0%,0%,66.665649%);fill-opacity:1;stroke-width:0.2;stroke-linecap:square;stroke-linejoin:miter;stroke:rgb(0%,0%,66.665649%);stroke-opacity:1;stroke-miterlimit:3.25;" d="M 344.6875 40.082031 L 344.6875 28.285156 L 356.480469 28.285156 L 356.480469 40.082031 Z M 344.6875 40.082031 "/>
<path style="fill:none;stroke-width:0.2;stroke-linecap:square;stroke-linejoin:miter;stroke:rgb(0%,0%,0%);stroke-opacity:1;stroke-miterlimit:3.25;" d="M 344.6875 40.082031 L 344.6875 28.285156 L 356.480469 28.285156 L 356.480469 40.082031 Z M 344.6875 40.082031 "/>
<path style=" stroke:none;fill-rule:nonzero;fill:rgb(0%,0%,0%);fill-opacity:1;" d="M 379.019531 26.320313 L 379.019531 6.664063 L 398.675781 6.664063 L 398.675781 26.320313 Z M 379.019531 26.320313 "/>
<g clip-path="url(#clip6)" clip-rule="nonzero">
<path style="fill:none;stroke-width:1;stroke-linecap:square;stroke-linejoin:miter;stroke:rgb(0%,0%,0%);stroke-opacity:1;stroke-miterlimit:3.239307;" d="M 379.019531 26.320313 L 379.019531 6.664063 L 398.675781 6.664063 L 398.675781 26.320313 Z M 379.019531 26.320313 "/>
</g>
<path style="fill:none;stroke-width:0.2;stroke-linecap:square;stroke-linejoin:miter;stroke:rgb(0%,0%,0%);stroke-opacity:1;stroke-miterlimit:3.25;" d="M 379.019531 26.320313 L 379.019531 6.664063 L 398.675781 6.664063 L 398.675781 26.320313 Z M 379.019531 26.320313 "/>
<path style="fill-rule:nonzero;fill:rgb(99.998474%,99.998474%,99.998474%);fill-opacity:1;stroke-width:0.2;stroke-linecap:square;stroke-linejoin:miter;stroke:rgb(99.998474%,99.998474%,99.998474%);stroke-opacity:1;stroke-miterlimit:3.25;" d="M 400.644531 26.320313 L 400.644531 6.664063 L 420.300781 6.664063 L 420.300781 26.320313 Z M 400.644531 26.320313 "/>
<path style="fill:none;stroke-width:0.2;stroke-linecap:square;stroke-linejoin:miter;stroke:rgb(0%,0%,0%);stroke-opacity:1;stroke-miterlimit:3.25;" d="M 400.644531 26.320313 L 400.644531 6.664063 L 420.300781 6.664063 L 420.300781 26.320313 Z M 400.644531 26.320313 "/>
<path style="fill-rule:nonzero;fill:rgb(0%,0%,0%);fill-opacity:1;stroke-width:0.2;stroke-linecap:square;stroke-linejoin:miter;stroke:rgb(0%,0%,0%);stroke-opacity:1;stroke-miterlimit:3.25;" d="M 422.265625 26.320313 L 422.265625 6.664063 L 441.921875 6.664063 L 441.921875 26.320313 Z M 422.265625 26.320313 "/>
<path style="fill:none;stroke-width:0.2;stroke-linecap:square;stroke-linejoin:miter;stroke:rgb(0%,0%,0%);stroke-opacity:1;stroke-miterlimit:3.25;" d="M 422.265625 26.320313 L 422.265625 6.664063 L 441.921875 6.664063 L 441.921875 26.320313 Z M 422.265625 26.320313 "/>
<path style="fill-rule:nonzero;fill:rgb(0%,66.665649%,0%);fill-opacity:1;stroke-width:0.2;stroke-linecap:square;stroke-linejoin:miter;stroke:rgb(0%,66.665649%,0%);stroke-opacity:1;stroke-miterlimit:3.25;" d="M 404.574219 40.082031 L 404.574219 28.285156 L 416.367188 28.285156 L 416.367188 40.082031 Z M 404.574219 40.082031 "/>
<path style="fill:none;stroke-width:0.2;stroke-linecap:square;stroke-linejoin:miter;stroke:rgb(0%,0%,0%);stroke-opacity:1;stroke-miterlimit:3.25;" d="M 404.574219 40.082031 L 404.574219 28.285156 L 416.367188 28.285156 L 416.367188 40.082031 Z M 404.574219 40.082031 "/>
<path style="fill-rule:nonzero;fill:rgb(0%,0%,66.665649%);fill-opacity:1;stroke-width:0.2;stroke-linecap:square;stroke-linejoin:miter;stroke:rgb(0%,0%,66.665649%);stroke-opacity:1;stroke-miterlimit:3.25;" d="M 390.816406 40.082031 L 390.816406 28.285156 L 402.609375 28.285156 L 402.609375 40.082031 Z M 390.816406 40.082031 "/>
<path style="fill:none;stroke-width:0.2;stroke-linecap:square;stroke-linejoin:miter;stroke:rgb(0%,0%,0%);stroke-opacity:1;stroke-miterlimit:3.25;" d="M 390.816406 40.082031 L 390.816406 28.285156 L 402.609375 28.285156 L 402.609375 40.082031 Z M 390.816406 40.082031 "/>
<path style="fill-rule:nonzero;fill:rgb(0%,0%,66.665649%);fill-opacity:1;stroke-width:0.2;stroke-linecap:square;stroke-linejoin:miter;stroke:rgb(0%,0%,66.665649%);stroke-opacity:1;stroke-miterlimit:3.25;" d="M 418.332031 40.082031 L 418.332031 28.285156 L 430.128906 28.285156 L 430.128906 40.082031 Z M 418.332031 40.082031 "/>
<path style="fill:none;stroke-width:0.2;stroke-linecap:square;stroke-linejoin:miter;stroke:rgb(0%,0%,0%);stroke-opacity:1;stroke-miterlimit:3.25;" d="M 418.332031 40.082031 L 418.332031 28.285156 L 430.128906 28.285156 L 430.128906 40.082031 Z M 418.332031 40.082031 "/>
<path style=" stroke:none;fill-rule:nonzero;fill:rgb(0%,0%,0%);fill-opacity:1;" d="M 452.667969 26.320313 L 452.667969 6.664063 L 472.324219 6.664063 L 472.324219 26.320313 Z M 452.667969 26.320313 "/>
<g clip-path="url(#clip7)" clip-rule="nonzero">
<path style="fill:none;stroke-width:1;stroke-linecap:square;stroke-linejoin:miter;stroke:rgb(0%,0%,0%);stroke-opacity:1;stroke-miterlimit:3.239307;" d="M 452.667969 26.320313 L 452.667969 6.664063 L 472.324219 6.664063 L 472.324219 26.320313 Z M 452.667969 26.320313 "/>
</g>
<path style="fill:none;stroke-width:0.2;stroke-linecap:square;stroke-linejoin:miter;stroke:rgb(0%,0%,0%);stroke-opacity:1;stroke-miterlimit:3.25;" d="M 452.667969 26.320313 L 452.667969 6.664063 L 472.324219 6.664063 L 472.324219 26.320313 Z M 452.667969 26.320313 "/>
<path style="fill-rule:nonzero;fill:rgb(0%,0%,0%);fill-opacity:1;stroke-width:0.2;stroke-linecap:square;stroke-linejoin:miter;stroke:rgb(0%,0%,0%);stroke-opacity:1;stroke-miterlimit:3.25;" d="M 474.289063 26.320313 L 474.289063 6.664063 L 493.945313 6.664063 L 493.945313 26.320313 Z M 474.289063 26.320313 "/>
<path style="fill:none;stroke-width:0.2;stroke-linecap:square;stroke-linejoin:miter;stroke:rgb(0%,0%,0%);stroke-opacity:1;stroke-miterlimit:3.25;" d="M 474.289063 26.320313 L 474.289063 6.664063 L 493.945313 6.664063 L 493.945313 26.320313 Z M 474.289063 26.320313 "/>
<path style="fill-rule:nonzero;fill:rgb(99.998474%,99.998474%,99.998474%);fill-opacity:1;stroke-width:0.2;stroke-linecap:square;stroke-linejoin:miter;stroke:rgb(99.998474%,99.998474%,99.998474%);stroke-opacity:1;stroke-miterlimit:3.25;" d="M 495.910156 26.320313 L 495.910156 6.664063 L 515.566406 6.664063 L 515.566406 26.320313 Z M 495.910156 26.320313 "/>
<path style="fill:none;stroke-width:0.2;stroke-linecap:square;stroke-linejoin:miter;stroke:rgb(0%,0%,0%);stroke-opacity:1;stroke-miterlimit:3.25;" d="M 495.910156 26.320313 L 495.910156 6.664063 L 515.566406 6.664063 L 515.566406 26.320313 Z M 495.910156 26.320313 "/>
<path style="fill-rule:nonzero;fill:rgb(0%,66.665649%,0%);fill-opacity:1;stroke-width:0.2;stroke-linecap:square;stroke-linejoin:miter;stroke:rgb(0%,66.665649%,0%);stroke-opacity:1;stroke-miterlimit:3.25;" d="M 478.222656 40.082031 L 478.222656 28.285156 L 490.015625 28.285156 L 490.015625 40.082031 Z M 478.222656 40.082031 "/>
<path style="fill:none;stroke-width:0.2;stroke-linecap:square;stroke-linejoin:miter;stroke:rgb(0%,0%,0%);stroke-opacity:1;stroke-miterlimit:3.25;" d="M 478.222656 40.082031 L 478.222656 28.285156 L 490.015625 28.285156 L 490.015625 40.082031 Z M 478.222656 40.082031 "/>
<path style="fill-rule:nonzero;fill:rgb(99.998474%,0%,0%);fill-opacity:1;stroke-width:0.2;stroke-linecap:square;stroke-linejoin:miter;stroke:rgb(99.998474%,0%,0%);stroke-opacity:1;stroke-miterlimit:3.25;" d="M 464.460938 40.082031 L 464.460938 28.285156 L 476.253906 28.285156 L 476.253906 40.082031 Z M 464.460938 40.082031 "/>
<path style="fill:none;stroke-width:0.2;stroke-linecap:square;stroke-linejoin:miter;stroke:rgb(0%,0%,0%);stroke-opacity:1;stroke-miterlimit:3.25;" d="M 464.460938 40.082031 L 464.460938 28.285156 L 476.253906 28.285156 L 476.253906 40.082031 Z M 464.460938 40.082031 "/>
<path style="fill-rule:nonzero;fill:rgb(0%,0%,66.665649%);fill-opacity:1;stroke-width:0.2;stroke-linecap:square;stroke-linejoin:miter;stroke:rgb(0%,0%,66.665649%);stroke-opacity:1;stroke-miterlimit:3.25;" d="M 491.980469 40.082031 L 491.980469 28.285156 L 503.773438 28.285156 L 503.773438 40.082031 Z M 491.980469 40.082031 "/>
<path style="fill:none;stroke-width:0.2;stroke-linecap:square;stroke-linejoin:miter;stroke:rgb(0%,0%,0%);stroke-opacity:1;stroke-miterlimit:3.25;" d="M 491.980469 40.082031 L 491.980469 28.285156 L 503.773438 28.285156 L 503.773438 40.082031 Z M 491.980469 40.082031 "/>
<path style=" stroke:none;fill-rule:nonzero;fill:rgb(0%,0%,0%);fill-opacity:1;" d="M 526.316406 26.320313 L 526.316406 6.664063 L 545.972656 6.664063 L 545.972656 26.320313 Z M 526.316406 26.320313 "/>
<g clip-path="url(#clip8)" clip-rule="nonzero">
<path style="fill:none;stroke-width:1;stroke-linecap:square;stroke-linejoin:miter;stroke:rgb(0%,0%,0%);stroke-opacity:1;stroke-miterlimit:3.239307;" d="M 526.316406 26.320313 L 526.316406 6.664063 L 545.972656 6.664063 L 545.972656 26.320313 Z M 526.316406 26.320313 "/>
</g>
<path style="fill:none;stroke-width:0.2;stroke-linecap:square;stroke-linejoin:miter;stroke:rgb(0%,0%,0%);stroke-opacity:1;stroke-miterlimit:3.25;" d="M 526.316406 26.320313 L 526.316406 6.664063 L 545.972656 6.664063 L 545.972656 26.320313 Z M 526.316406 26.320313 "/>
<path style="fill-rule:nonzero;fill:rgb(0%,0%,0%);fill-opacity:1;stroke-width:0.2;stroke-linecap:square;stroke-linejoin:miter;stroke:rgb(0%,0%,0%);stroke-opacity:1;stroke-miterlimit:3.25;" d="M 547.9375 26.320313 L 547.9375 6.664063 L 567.59375 6.664063 L 567.59375 26.320313 Z M 547.9375 26.320313 "/>
<path style="fill:none;stroke-width:0.2;stroke-linecap:square;stroke-linejoin:miter;stroke:rgb(0%,0%,0%);stroke-opacity:1;stroke-miterlimit:3.25;" d="M 547.9375 26.320313 L 547.9375 6.664063 L 567.59375 6.664063 L 567.59375 26.320313 Z M 547.9375 26.320313 "/>
<path style="fill-rule:nonzero;fill:rgb(0%,0%,0%);fill-opacity:1;stroke-width:0.2;stroke-linecap:square;stroke-linejoin:miter;stroke:rgb(0%,0%,0%);stroke-opacity:1;stroke-miterlimit:3.25;" d="M 569.558594 26.320313 L 569.558594 6.664063 L 589.214844 6.664063 L 589.214844 26.320313 Z M 569.558594 26.320313 "/>
<path style="fill:none;stroke-width:0.2;stroke-linecap:square;stroke-linejoin:miter;stroke:rgb(0%,0%,0%);stroke-opacity:1;stroke-miterlimit:3.25;" d="M 569.558594 26.320313 L 569.558594 6.664063 L 589.214844 6.664063 L 589.214844 26.320313 Z M 569.558594 26.320313 "/>
<path style="fill-rule:nonzero;fill:rgb(99.998474%,0%,0%);fill-opacity:1;stroke-width:0.2;stroke-linecap:square;stroke-linejoin:miter;stroke:rgb(99.998474%,0%,0%);stroke-opacity:1;stroke-miterlimit:3.25;" d="M 551.867188 40.082031 L 551.867188 28.285156 L 563.664063 28.285156 L 563.664063 40.082031 Z M 551.867188 40.082031 "/>
<path style="fill:none;stroke-width:0.2;stroke-linecap:square;stroke-linejoin:miter;stroke:rgb(0%,0%,0%);stroke-opacity:1;stroke-miterlimit:3.25;" d="M 551.867188 40.082031 L 551.867188 28.285156 L 563.664063 28.285156 L 563.664063 40.082031 Z M 551.867188 40.082031 "/>
<path style="fill-rule:nonzero;fill:rgb(99.998474%,0%,0%);fill-opacity:1;stroke-width:0.2;stroke-linecap:square;stroke-linejoin:miter;stroke:rgb(99.998474%,0%,0%);stroke-opacity:1;stroke-miterlimit:3.25;" d="M 538.109375 40.082031 L 538.109375 28.285156 L 549.902344 28.285156 L 549.902344 40.082031 Z M 538.109375 40.082031 "/>
<path style="fill:none;stroke-width:0.2;stroke-linecap:square;stroke-linejoin:miter;stroke:rgb(0%,0%,0%);stroke-opacity:1;stroke-miterlimit:3.25;" d="M 538.109375 40.082031 L 538.109375 28.285156 L 549.902344 28.285156 L 549.902344 40.082031 Z M 538.109375 40.082031 "/>
<path style="fill-rule:nonzero;fill:rgb(99.998474%,0%,0%);fill-opacity:1;stroke-width:0.2;stroke-linecap:square;stroke-linejoin:miter;stroke:rgb(99.998474%,0%,0%);stroke-opacity:1;stroke-miterlimit:3.25;" d="M 565.628906 40.082031 L 565.628906 28.285156 L 577.421875 28.285156 L 577.421875 40.082031 Z M 565.628906 40.082031 "/>
<path style="fill:none;stroke-width:0.2;stroke-linecap:square;stroke-linejoin:miter;stroke:rgb(0%,0%,0%);stroke-opacity:1;stroke-miterlimit:3.25;" d="M 565.628906 40.082031 L 565.628906 28.285156 L 577.421875 28.285156 L 577.421875 40.082031 Z M 565.628906 40.082031 "/>
<path style="fill:none;stroke-width:1;stroke-linecap:square;stroke-linejoin:miter;stroke:rgb(0%,0%,0%);stroke-opacity:1;stroke-miterlimit:3.25;" d="M 5.410156 4.507813 L 5.410156 42.238281 "/>
<path style="fill:none;stroke-width:1;stroke-linecap:square;stroke-linejoin:miter;stroke:rgb(0%,0%,0%);stroke-opacity:1;stroke-miterlimit:3.25;" d="M 79.058594 4.507813 L 79.058594 42.238281 "/>
<path style="fill:none;stroke-width:1;stroke-linecap:square;stroke-linejoin:miter;stroke:rgb(0%,0%,0%);stroke-opacity:1;stroke-miterlimit:3.25;" d="M 152.707031 4.507813 L 152.707031 42.238281 "/>
<path style="fill:none;stroke-width:1;stroke-linecap:square;stroke-linejoin:miter;stroke:rgb(0%,0%,0%);stroke-opacity:1;stroke-miterlimit:3.25;" d="M 226.351563 4.507813 L 226.351563 42.238281 "/>
<path style="fill:none;stroke-width:1;stroke-linecap:square;stroke-linejoin:miter;stroke:rgb(0%,0%,0%);stroke-opacity:1;stroke-miterlimit:3.25;" d="M 300 4.507813 L 300 42.238281 "/>
<path style="fill:none;stroke-width:1;stroke-linecap:square;stroke-linejoin:miter;stroke:rgb(0%,0%,0%);stroke-opacity:1;stroke-miterlimit:3.25;" d="M 373.648438 4.507813 L 373.648438 42.238281 "/>
<path style="fill:none;stroke-width:1;stroke-linecap:square;stroke-linejoin:miter;stroke:rgb(0%,0%,0%);stroke-opacity:1;stroke-miterlimit:3.25;" d="M 447.292969 4.507813 L 447.292969 42.238281 "/>
<path style="fill:none;stroke-width:1;stroke-linecap:square;stroke-linejoin:miter;stroke:rgb(0%,0%,0%);stroke-opacity:1;stroke-miterlimit:3.25;" d="M 520.941406 4.507813 L 520.941406 42.238281 "/>
<path style="fill:none;stroke-width:1;stroke-linecap:square;stroke-linejoin:miter;stroke:rgb(0%,0%,0%);stroke-opacity:1;stroke-miterlimit:3.25;" d="M 594.589844 4.507813 L 594.589844 42.238281 "/>
<path style="fill:none;stroke-width:1;stroke-linecap:square;stroke-linejoin:miter;stroke:rgb(0%,0%,0%);stroke-opacity:1;stroke-miterlimit:3.25;" d="M 5.410156 4.507813 L 79.058594 4.507813 "/>
<path style="fill:none;stroke-width:1;stroke-linecap:square;stroke-linejoin:miter;stroke:rgb(0%,0%,0%);stroke-opacity:1;stroke-miterlimit:3.25;" d="M 79.058594 4.507813 L 152.707031 4.507813 "/>
<path style="fill:none;stroke-width:1;stroke-linecap:square;stroke-linejoin:miter;stroke:rgb(0%,0%,0%);stroke-opacity:1;stroke-miterlimit:3.25;" d="M 152.707031 4.507813 L 226.351563 4.507813 "/>
<path style="fill:none;stroke-width:1;stroke-linecap:square;stroke-linejoin:miter;stroke:rgb(0%,0%,0%);stroke-opacity:1;stroke-miterlimit:3.25;" d="M 226.351563 4.507813 L 300 4.507813 "/>
<path style="fill:none;stroke-width:1;stroke-linecap:square;stroke-linejoin:miter;stroke:rgb(0%,0%,0%);stroke-opacity:1;stroke-miterlimit:3.25;" d="M 300 4.507813 L 373.648438 4.507813 "/>
<path style="fill:none;stroke-width:1;stroke-linecap:square;stroke-linejoin:miter;stroke:rgb(0%,0%,0%);stroke-opacity:1;stroke-miterlimit:3.25;" d="M 373.648438 4.507813 L 447.292969 4.507813 "/>
<path style="fill:none;stroke-width:1;stroke-linecap:square;stroke-linejoin:miter;stroke:rgb(0%,0%,0%);stroke-opacity:1;stroke-miterlimit:3.25;" d="M 447.292969 4.507813 L 520.941406 4.507813 "/>
<path style="fill:none;stroke-width:1;stroke-linecap:square;stroke-linejoin:miter;stroke:rgb(0%,0%,0%);stroke-opacity:1;stroke-miterlimit:3.25;" d="M 520.941406 4.507813 L 594.589844 4.507813 "/>
<path style="fill:none;stroke-width:1;stroke-linecap:square;stroke-linejoin:miter;stroke:rgb(0%,0%,0%);stroke-opacity:1;stroke-miterlimit:3.25;" d="M 5.410156 42.238281 L 79.058594 42.238281 "/>
<path style="fill:none;stroke-width:1;stroke-linecap:square;stroke-linejoin:miter;stroke:rgb(0%,0%,0%);stroke-opacity:1;stroke-miterlimit:3.25;" d="M 79.058594 42.238281 L 152.707031 42.238281 "/>
<path style="fill:none;stroke-width:1;stroke-linecap:square;stroke-linejoin:miter;stroke:rgb(0%,0%,0%);stroke-opacity:1;stroke-miterlimit:3.25;" d="M 152.707031 42.238281 L 226.351563 42.238281 "/>
<path style="fill:none;stroke-width:1;stroke-linecap:square;stroke-linejoin:miter;stroke:rgb(0%,0%,0%);stroke-opacity:1;stroke-miterlimit:3.25;" d="M 226.351563 42.238281 L 300 42.238281 "/>
<path style="fill:none;stroke-width:1;stroke-linecap:square;stroke-linejoin:miter;stroke:rgb(0%,0%,0%);stroke-opacity:1;stroke-miterlimit:3.25;" d="M 300 42.238281 L 373.648438 42.238281 "/>
<path style="fill:none;stroke-width:1;stroke-linecap:square;stroke-linejoin:miter;stroke:rgb(0%,0%,0%);stroke-opacity:1;stroke-miterlimit:3.25;" d="M 373.648438 42.238281 L 447.292969 42.238281 "/>
<path style="fill:none;stroke-width:1;stroke-linecap:square;stroke-linejoin:miter;stroke:rgb(0%,0%,0%);stroke-opacity:1;stroke-miterlimit:3.25;" d="M 447.292969 42.238281 L 520.941406 42.238281 "/>
<path style="fill:none;stroke-width:1;stroke-linecap:square;stroke-linejoin:miter;stroke:rgb(0%,0%,0%);stroke-opacity:1;stroke-miterlimit:3.25;" d="M 520.941406 42.238281 L 594.589844 42.238281 "/>
</g>
</svg>
