<?xml version="1.0" encoding="UTF-8"?>
<svg xmlns="http://www.w3.org/2000/svg" xmlns:xlink="http://www.w3.org/1999/xlink" width="360pt" height="49pt" viewBox="0 0 360 49" version="1.1">
<g id="surface19">
<path style="fill-rule:nonzero;fill:rgb(99.998474%,99.998474%,99.998474%);fill-opacity:1;stroke-width:1;stroke-linecap:square;stroke-linejoin:miter;stroke:rgb(99.998474%,99.998474%,99.998474%);stroke-opacity:1;stroke-miterlimit:3.239307;" d="M 12.601563 23.113281 L 12.601563 12.3125 L 23.398438 12.3125 L 23.398438 23.113281 Z M 12.601563 23.113281 "/>
<path style="fill:none;stroke-width:1;stroke-linecap:square;stroke-linejoin:miter;stroke:rgb(61.802673%,61.802673%,61.802673%);stroke-opacity:1;stroke-miterlimit:3.25;" d="M 12.601563 23.113281 L 12.601563 12.3125 L 23.398438 12.3125 L 23.398438 23.113281 Z M 12.601563 23.113281 "/>
<path style="fill-rule:nonzero;fill:rgb(99.998474%,99.998474%,99.998474%);fill-opacity:1;stroke-width:1;stroke-linecap:square;stroke-linejoin:miter;stroke:rgb(99.998474%,99.998474%,99.998474%);stroke-opacity:1;stroke-miterlimit:3.25;" d="M 23.398438 23.113281 L 23.398438 12.3125 L 34.199219 12.3125 L 34.199219 23.113281 Z M 23.398438 23.113281 "/>
<path style="fill:none;stroke-width:1;stroke-linecap:square;stroke-linejoin:miter;stroke:rgb(61.802673%,61.802673%,61.802673%);stroke-opacity:1;stroke-miterlimit:3.25;" d="M 23.398438 23.113281 L 23.398438 12.3125 L 34.199219 12.3125 L 34.199219 23.113281 Z M 23.398438 23.113281 "/>
<path style="fill-rule:nonzero;fill:rgb(99.998474%,99.998474%,99.998474%);fill-opacity:1;stroke-width:1;stroke-linecap:square;stroke-linejoin:miter;stroke:rgb(99.998474%,99.998474%,99.998474%);stroke-opacity:1;stroke-miterlimit:3.25;" d="M 34.199219 23.113281 L 34.199219 12.3125 L 45 12.3125 L 45 23.113281 Z M 34.199219 23.113281 "/>
<path style="fill:none;stroke-width:1;stroke-linecap:square;stroke-linejoin:miter;stroke:rgb(61.802673%,61.802673%,61.802673%);stroke-opacity:1;stroke-miterlimit:3.25;" d="M 34.199219 23.113281 L 34.199219 12.3125 L 45 12.3125 L 45 23.113281 Z M 34.199219 23.113281 "/>
<path style="fill-rule:nonzero;fill:rgb(0%,0%,0%);fill-opacity:1;stroke-width:1;stroke-linecap:square;stroke-linejoin:miter;stroke:rgb(0%,0%,0%);stroke-opacity:1;stroke-miterlimit:3.25;" d="M 23.398438 36.613281 L 23.398438 25.8125 L 34.199219 25.8125 L 34.199219 36.613281 Z M 23.398438 36.613281 "/>
<path style="fill:none;stroke-width:1;stroke-linecap:square;stroke-linejoin:miter;stroke:rgb(61.802673%,61.802673%,61.802673%);stroke-opacity:1;stroke-miterlimit:3.25;" d="M 23.398438 36.613281 L 23.398438 25.8125 L 34.199219 25.8125 L 34.199219 36.613281 Z M 23.398438 36.613281 "/>
<path style="fill-rule:nonzero;fill:rgb(99.998474%,99.998474%,99.998474%);fill-opacity:1;stroke-width:1;stroke-linecap:square;stroke-linejoin:miter;stroke:rgb(99.998474%,99.998474%,99.998474%);stroke-opacity:1;stroke-miterlimit:3.239307;" d="M 55.800781 23.113281 L 55.800781 12.3125 L 66.601563 12.3125 L 66.601563 23.113281 Z M 55.800781 23.113281 "/>
<path style="fill:none;stroke-width:1;stroke-linecap:square;stroke-linejoin:miter;stroke:rgb(61.802673%,61.802673%,61.802673%);stroke-opacity:1;stroke-miterlimit:3.25;" d="M 55.800781 23.113281 L 55.800781 12.3125 L 66.601563 12.3125 L 66.601563 23.113281 Z M 55.800781 23.113281 "/>
<path style="fill-rule:nonzero;fill:rgb(99.998474%,99.998474%,99.998474%);fill-opacity:1;stroke-width:1;stroke-linecap:square;stroke-linejoin:miter;stroke:rgb(99.998474%,99.998474%,99.998474%);stroke-opacity:1;stroke-miterlimit:3.25;" d="M 66.601563 23.113281 L 66.601563 12.3125 L 77.398438 12.3125 L 77.398438 23.113281 Z M 66.601563 23.113281 "/>
<path style="fill:none;stroke-width:1;stroke-linecap:square;stroke-linejoin:miter;stroke:rgb(61.802673%,61.802673%,61.802673%);stroke-opacity:1;stroke-miterlimit:3.25;" d="M 66.601563 23.113281 L 66.601563 12.3125 L 77.398438 12.3125 L 77.398438 23.113281 Z M 66.601563 23.113281 "/>
<path style="fill-rule:nonzero;fill:rgb(0%,0%,0%);fill-opacity:1;stroke-width:1;stroke-linecap:square;stroke-linejoin:miter;stroke:rgb(0%,0%,0%);stroke-opacity:1;stroke-miterlimit:3.25;" d="M 77.398438 23.113281 L 77.398438 12.3125 L 88.199219 12.3125 L 88.199219 23.113281 Z M 77.398438 23.113281 "/>
<path style="fill:none;stroke-width:1;stroke-linecap:square;stroke-linejoin:miter;stroke:rgb(61.802673%,61.802673%,61.802673%);stroke-opacity:1;stroke-miterlimit:3.25;" d="M 77.398438 23.113281 L 77.398438 12.3125 L 88.199219 12.3125 L 88.199219 23.113281 Z M 77.398438 23.113281 "/>
<path style="fill-rule:nonzero;fill:rgb(0%,0%,0%);fill-opacity:1;stroke-width:1;stroke-linecap:square;stroke-linejoin:miter;stroke:rgb(0%,0%,0%);stroke-opacity:1;stroke-miterlimit:3.25;" d="M 66.601563 36.613281 L 66.601563 25.8125 L 77.398438 25.8125 L 77.398438 36.613281 Z M 66.601563 36.613281 "/>
<path style="fill:none;stroke-width:1;stroke-linecap:square;stroke-linejoin:miter;stroke:rgb(61.802673%,61.802673%,61.802673%);stroke-opacity:1;stroke-miterlimit:3.25;" d="M 66.601563 36.613281 L 66.601563 25.8125 L 77.398438 25.8125 L 77.398438 36.613281 Z M 66.601563 36.613281 "/>
<path style="fill-rule:nonzero;fill:rgb(99.998474%,99.998474%,99.998474%);fill-opacity:1;stroke-width:1;stroke-linecap:square;stroke-linejoin:miter;stroke:rgb(99.998474%,99.998474%,99.998474%);stroke-opacity:1;stroke-miterlimit:3.239307;" d="M 99 23.113281 L 99 12.3125 L 109.800781 12.3125 L 109.800781 23.113281 Z M 99 23.113281 "/>
<path style="fill:none;stroke-width:1;stroke-linecap:square;stroke-linejoin:miter;stroke:rgb(61.802673%,61.802673%,61.802673%);stroke-opacity:1;stroke-miterlimit:3.25;" d="M 99 23.113281 L 99 12.3125 L 109.800781 12.3125 L 109.800781 23.113281 Z M 99 23.113281 "/>
<path style="fill-rule:nonzero;fill:rgb(0%,0%,0%);fill-opacity:1;stroke-width:1;stroke-linecap:square;stroke-linejoin:miter;stroke:rgb(0%,0%,0%);stroke-opacity:1;stroke-miterlimit:3.25;" d="M 109.800781 23.113281 L 109.800781 12.3125 L 120.601563 12.3125 L 120.601563 23.113281 Z M 109.800781 23.113281 "/>
<path style="fill:none;stroke-width:1;stroke-linecap:square;stroke-linejoin:miter;stroke:rgb(61.802673%,61.802673%,61.802673%);stroke-opacity:1;stroke-miterlimit:3.25;" d="M 109.800781 23.113281 L 109.800781 12.3125 L 120.601563 12.3125 L 120.601563 23.113281 Z M 109.800781 23.113281 "/>
<path style="fill-rule:nonzero;fill:rgb(99.998474%,99.998474%,99.998474%);fill-opacity:1;stroke-width:1;stroke-linecap:square;stroke-linejoin:miter;stroke:rgb(99.998474%,99.998474%,99.998474%);stroke-opacity:1;stroke-miterlimit:3.25;" d="M 120.601563 23.113281 L 120.601563 12.3125 L 131.398438 12.3125 L 131.398438 23.113281 Z M 120.601563 23.113281 "/>
<path style="fill:none;stroke-width:1;stroke-linecap:square;stroke-linejoin:miter;stroke:rgb(61.802673%,61.802673%,61.802673%);stroke-opacity:1;stroke-miterlimit:3.25;" d="M 120.601563 23.113281 L 120.601563 12.3125 L 131.398438 12.3125 L 131.398438 23.113281 Z M 120.601563 23.113281 "/>
<path style="fill-rule:nonzero;fill:rgb(0%,0%,0%);fill-opacity:1;stroke-width:1;stroke-linecap:square;stroke-linejoin:miter;stroke:rgb(0%,0%,0%);stroke-opacity:1;stroke-miterlimit:3.25;" d="M 109.800781 36.613281 L 109.800781 25.8125 L 120.601563 25.8125 L 120.601563 36.613281 Z M 109.800781 36.613281 "/>
<path style="fill:none;stroke-width:1;stroke-linecap:square;stroke-linejoin:miter;stroke:rgb(61.802673%,61.802673%,61.802673%);stroke-opacity:1;stroke-miterlimit:3.25;" d="M 109.800781 36.613281 L 109.800781 25.8125 L 120.601563 25.8125 L 120.601563 36.613281 Z M 109.800781 36.613281 "/>
<path style="fill-rule:nonzero;fill:rgb(99.998474%,99.998474%,99.998474%);fill-opacity:1;stroke-width:1;stroke-linecap:square;stroke-linejoin:miter;stroke:rgb(99.998474%,99.998474%,99.998474%);stroke-opacity:1;stroke-miterlimit:3.239307;" d="M 142.199219 23.113281 L 142.199219 12.3125 L 153 12.3125 L 153 23.113281 Z M 142.199219 23.113281 "/>
<path style="fill:none;stroke-width:1;stroke-linecap:square;stroke-linejoin:miter;stroke:rgb(61.802673%,61.802673%,61.802673%);stroke-opacity:1;stroke-miterlimit:3.25;" d="M 142.199219 23.113281 L 142.199219 12.3125 L 153 12.3125 L 153 23.113281 Z M 142.199219 23.113281 "/>
<path style="fill-rule:nonzero;fill:rgb(0%,0%,0%);fill-opacity:1;stroke-width:1;stroke-linecap:square;stroke-linejoin:miter;stroke:rgb(0%,0%,0%);stroke-opacity:1;stroke-miterlimit:3.25;" d="M 153 23.113281 L 153 12.3125 L 163.800781 12.3125 L 163.800781 23.113281 Z M 153 23.113281 "/>
<path style="fill:none;stroke-width:1;stroke-linecap:square;stroke-linejoin:miter;stroke:rgb(61.802673%,61.802673%,61.802673%);stroke-opacity:1;stroke-miterlimit:3.25;" d="M 153 23.113281 L 153 12.3125 L 163.800781 12.3125 L 163.800781 23.113281 Z M 153 23.113281 "/>
<path style="fill-rule:nonzero;fill:rgb(0%,0%,0%);fill-opacity:1;stroke-width:1;stroke-linecap:square;stroke-linejoin:miter;stroke:rgb(0%,0%,0%);stroke-opacity:1;stroke-miterlimit:3.25;" d="M 163.800781 23.113281 L 163.800781 12.3125 L 174.601563 12.3125 L 174.601563 23.113281 Z M 163.800781 23.113281 "/>
<path style="fill:none;stroke-width:1;stroke-linecap:square;stroke-linejoin:miter;stroke:rgb(61.802673%,61.802673%,61.802673%);stroke-opacity:1;stroke-miterlimit:3.25;" d="M 163.800781 23.113281 L 163.800781 12.3125 L 174.601563 12.3125 L 174.601563 23.113281 Z M 163.800781 23.113281 "/>
<path style="fill-rule:nonzero;fill:rgb(99.998474%,99.998474%,99.998474%);fill-opacity:1;stroke-width:1;stroke-linecap:square;stroke-linejoin:miter;stroke:rgb(99.998474%,99.998474%,99.998474%);stroke-opacity:1;stroke-miterlimit:3.25;" d="M 153 36.613281 L 153 25.8125 L 163.800781 25.8125 L 163.800781 36.613281 Z M 153 36.613281 "/>
<path style="fill:none;stroke-width:1;stroke-linecap:square;stroke-linejoin:miter;stroke:rgb(61.802673%,61.802673%,61.802673%);stroke-opacity:1;stroke-miterlimit:3.25;" d="M 153 36.613281 L 153 25.8125 L 163.800781 25.8125 L 163.800781 36.613281 Z M 153 36.613281 "/>
<path style="fill-rule:nonzero;fill:rgb(0%,0%,0%);fill-opacity:1;stroke-width:1;stroke-linecap:square;stroke-linejoin:miter;stroke:rgb(0%,0%,0%);stroke-opacity:1;stroke-miterlimit:3.239307;" d="M 185.398438 23.113281 L 185.398438 12.3125 L 196.199219 12.3125 L 196.199219 23.113281 Z M 185.398438 23.113281 "/>
<path style="fill:none;stroke-width:1;stroke-linecap:square;stroke-linejoin:miter;stroke:rgb(61.802673%,61.802673%,61.802673%);stroke-opacity:1;stroke-miterlimit:3.25;" d="M 185.398438 23.113281 L 185.398438 12.3125 L 196.199219 12.3125 L 196.199219 23.113281 Z M 185.398438 23.113281 "/>
<path style="fill-rule:nonzero;fill:rgb(99.998474%,99.998474%,99.998474%);fill-opacity:1;stroke-width:1;stroke-linecap:square;stroke-linejoin:miter;stroke:rgb(99.998474%,99.998474%,99.998474%);stroke-opacity:1;stroke-miterlimit:3.25;" d="M 196.199219 23.113281 L 196.199219 12.3125 L 207 12.3125 L 207 23.113281 Z M 196.199219 23.113281 "/>
<path style="fill:none;stroke-width:1;stroke-linecap:square;stroke-linejoin:miter;stroke:rgb(61.802673%,61.802673%,61.802673%);stroke-opacity:1;stroke-miterlimit:3.25;" d="M 196.199219 23.113281 L 196.199219 12.3125 L 207 12.3125 L 207 23.113281 Z M 196.199219 23.113281 "/>
<path style="fill-rule:nonzero;fill:rgb(99.998474%,99.998474%,99.998474%);fill-opacity:1;stroke-width:1;stroke-linecap:square;stroke-linejoin:miter;stroke:rgb(99.998474%,99.998474%,99.998474%);stroke-opacity:1;stroke-miterlimit:3.25;" d="M 207 23.113281 L 207 12.3125 L 217.800781 12.3125 L 217.800781 23.113281 Z M 207 23.113281 "/>
<path style="fill:none;stroke-width:1;stroke-linecap:square;stroke-linejoin:miter;stroke:rgb(61.802673%,61.802673%,61.802673%);stroke-opacity:1;stroke-miterlimit:3.25;" d="M 207 23.113281 L 207 12.3125 L 217.800781 12.3125 L 217.800781 23.113281 Z M 207 23.113281 "/>
<path style="fill-rule:nonzero;fill:rgb(99.998474%,99.998474%,99.998474%);fill-opacity:1;stroke-width:1;stroke-linecap:square;stroke-linejoin:miter;stroke:rgb(99.998474%,99.998474%,99.998474%);stroke-opacity:1;stroke-miterlimit:3.25;" d="M 196.199219 36.613281 L 196.199219 25.8125 L 207 25.8125 L 207 36.613281 Z M 196.199219 36.613281 "/>
<path style="fill:none;stroke-width:1;stroke-linecap:square;stroke-linejoin:miter;stroke:rgb(61.802673%,61.802673%,61.802673%);stroke-opacity:1;stroke-miterlimit:3.25;" d="M 196.199219 36.613281 L 196.199219 25.8125 L 207 25.8125 L 207 36.613281 Z M 196.199219 36.613281 "/>
<path style="fill-rule:nonzero;fill:rgb(0%,0%,0%);fill-opacity:1;stroke-width:1;stroke-linecap:square;stroke-linejoin:miter;stroke:rgb(0%,0%,0%);stroke-opacity:1;stroke-miterlimit:3.239307;" d="M 228.601563 23.113281 L 228.601563 12.3125 L 239.398438 12.3125 L 239.398438 23.113281 Z M 228.601563 23.113281 "/>
<path style="fill:none;stroke-width:1;stroke-linecap:square;stroke-linejoin:miter;stroke:rgb(61.802673%,61.802673%,61.802673%);stroke-opacity:1;stroke-miterlimit:3.25;" d="M 228.601563 23.113281 L 228.601563 12.3125 L 239.398438 12.3125 L 239.398438 23.113281 Z M 228.601563 23.113281 "/>
<path style="fill-rule:nonzero;fill:rgb(99.998474%,99.998474%,99.998474%);fill-opacity:1;stroke-width:1;stroke-linecap:square;stroke-linejoin:miter;stroke:rgb(99.998474%,99.998474%,99.998474%);stroke-opacity:1;stroke-miterlimit:3.25;" d="M 239.398438 23.113281 L 239.398438 12.3125 L 250.199219 12.3125 L 250.199219 23.113281 Z M 239.398438 23.113281 "/>
<path style="fill:none;stroke-width:1;stroke-linecap:square;stroke-linejoin:miter;stroke:rgb(61.802673%,61.802673%,61.802673%);stroke-opacity:1;stroke-miterlimit:3.25;" d="M 239.398438 23.113281 L 239.398438 12.3125 L 250.199219 12.3125 L 250.199219 23.113281 Z M 239.398438 23.113281 "/>
<path style="fill-rule:nonzero;fill:rgb(0%,0%,0%);fill-opacity:1;stroke-width:1;stroke-linecap:square;stroke-linejoin:miter;stroke:rgb(0%,0%,0%);stroke-opacity:1;stroke-miterlimit:3.25;" d="M 250.199219 23.113281 L 250.199219 12.3125 L 261 12.3125 L 261 23.113281 Z M 250.199219 23.113281 "/>
<path style="fill:none;stroke-width:1;stroke-linecap:square;stroke-linejoin:miter;stroke:rgb(61.802673%,61.802673%,61.802673%);stroke-opacity:1;stroke-miterlimit:3.25;" d="M 250.199219 23.113281 L 250.199219 12.3125 L 261 12.3125 L 261 23.113281 Z M 250.199219 23.113281 "/>
<path style="fill-rule:nonzero;fill:rgb(99.998474%,99.998474%,99.998474%);fill-opacity:1;stroke-width:1;stroke-linecap:square;stroke-linejoin:miter;stroke:rgb(99.998474%,99.998474%,99.998474%);stroke-opacity:1;stroke-miterlimit:3.25;" d="M 239.398438 36.613281 L 239.398438 25.8125 L 250.199219 25.8125 L 250.199219 36.613281 Z M 239.398438 36.613281 "/>
<path style="fill:none;stroke-width:1;stroke-linecap:square;stroke-linejoin:miter;stroke:rgb(61.802673%,61.802673%,61.802673%);stroke-opacity:1;stroke-miterlimit:3.25;" d="M 239.398438 36.613281 L 239.398438 25.8125 L 250.199219 25.8125 L 250.199219 36.613281 Z M 239.398438 36.613281 "/>
<path style="fill-rule:nonzero;fill:rgb(0%,0%,0%);fill-opacity:1;stroke-width:1;stroke-linecap:square;stroke-linejoin:miter;stroke:rgb(0%,0%,0%);stroke-opacity:1;stroke-miterlimit:3.239307;" d="M 271.800781 23.113281 L 271.800781 12.3125 L 282.601563 12.3125 L 282.601563 23.113281 Z M 271.800781 23.113281 "/>
<path style="fill:none;stroke-width:1;stroke-linecap:square;stroke-linejoin:miter;stroke:rgb(61.802673%,61.802673%,61.802673%);stroke-opacity:1;stroke-miterlimit:3.25;" d="M 271.800781 23.113281 L 271.800781 12.3125 L 282.601563 12.3125 L 282.601563 23.113281 Z M 271.800781 23.113281 "/>
<path style="fill-rule:nonzero;fill:rgb(0%,0%,0%);fill-opacity:1;stroke-width:1;stroke-linecap:square;stroke-linejoin:miter;stroke:rgb(0%,0%,0%);stroke-opacity:1;stroke-miterlimit:3.25;" d="M 282.601563 23.113281 L 282.601563 12.3125 L 293.398438 12.3125 L 293.398438 23.113281 Z M 282.601563 23.113281 "/>
<path style="fill:none;stroke-width:1;stroke-linecap:square;stroke-linejoin:miter;stroke:rgb(61.802673%,61.802673%,61.802673%);stroke-opacity:1;stroke-miterlimit:3.25;" d="M 282.601563 23.113281 L 282.601563 12.3125 L 293.398438 12.3125 L 293.398438 23.113281 Z M 282.601563 23.113281 "/>
<path style="fill-rule:nonzero;fill:rgb(99.998474%,99.998474%,99.998474%);fill-opacity:1;stroke-width:1;stroke-linecap:square;stroke-linejoin:miter;stroke:rgb(99.998474%,99.998474%,99.998474%);stroke-opacity:1;stroke-miterlimit:3.25;" d="M 293.398438 23.113281 L 293.398438 12.3125 L 304.199219 12.3125 L 304.199219 23.113281 Z M 293.398438 23.113281 "/>
<path style="fill:none;stroke-width:1;stroke-linecap:square;stroke-linejoin:miter;stroke:rgb(61.802673%,61.802673%,61.802673%);stroke-opacity:1;stroke-miterlimit:3.25;" d="M 293.398438 23.113281 L 293.398438 12.3125 L 304.199219 12.3125 L 304.199219 23.113281 Z M 293.398438 23.113281 "/>
<path style="fill-rule:nonzero;fill:rgb(99.998474%,99.998474%,99.998474%);fill-opacity:1;stroke-width:1;stroke-linecap:square;stroke-linejoin:miter;stroke:rgb(99.998474%,99.998474%,99.998474%);stroke-opacity:1;stroke-miterlimit:3.25;" d="M 282.601563 36.613281 L 282.601563 25.8125 L 293.398438 25.8125 L 293.398438 36.613281 Z M 282.601563 36.613281 "/>
<path style="fill:none;stroke-width:1;stroke-linecap:square;stroke-linejoin:miter;stroke:rgb(61.802673%,61.802673%,61.802673%);stroke-opacity:1;stroke-miterlimit:3.25;" d="M 282.601563 36.613281 L 282.601563 25.8125 L 293.398438 25.8125 L 293.398438 36.613281 Z M 282.601563 36.613281 "/>
<path style="fill-rule:nonzero;fill:rgb(0%,0%,0%);fill-opacity:1;stroke-width:1;stroke-linecap:square;stroke-linejoin:miter;stroke:rgb(0%,0%,0%);stroke-opacity:1;stroke-miterlimit:3.239307;" d="M 315 23.113281 L 315 12.3125 L 325.800781 12.3125 L 325.800781 23.113281 Z M 315 23.113281 "/>
<path style="fill:none;stroke-width:1;stroke-linecap:square;stroke-linejoin:miter;stroke:rgb(61.802673%,61.802673%,61.802673%);stroke-opacity:1;stroke-miterlimit:3.25;" d="M 315 23.113281 L 315 12.3125 L 325.800781 12.3125 L 325.800781 23.113281 Z M 315 23.113281 "/>
<path style="fill-rule:nonzero;fill:rgb(0%,0%,0%);fill-opacity:1;stroke-width:1;stroke-linecap:square;stroke-linejoin:miter;stroke:rgb(0%,0%,0%);stroke-opacity:1;stroke-miterlimit:3.25;" d="M 325.800781 23.113281 L 325.800781 12.3125 L 336.601563 12.3125 L 336.601563 23.113281 Z M 325.800781 23.113281 "/>
<path style="fill:none;stroke-width:1;stroke-linecap:square;stroke-linejoin:miter;stroke:rgb(61.802673%,61.802673%,61.802673%);stroke-opacity:1;stroke-miterlimit:3.25;" d="M 325.800781 23.113281 L 325.800781 12.3125 L 336.601563 12.3125 L 336.601563 23.113281 Z M 325.800781 23.113281 "/>
<path style="fill-rule:nonzero;fill:rgb(0%,0%,0%);fill-opacity:1;stroke-width:1;stroke-linecap:square;stroke-linejoin:miter;stroke:rgb(0%,0%,0%);stroke-opacity:1;stroke-miterlimit:3.25;" d="M 336.601563 23.113281 L 336.601563 12.3125 L 347.398438 12.3125 L 347.398438 23.113281 Z M 336.601563 23.113281 "/>
<path style="fill:none;stroke-width:1;stroke-linecap:square;stroke-linejoin:miter;stroke:rgb(61.802673%,61.802673%,61.802673%);stroke-opacity:1;stroke-miterlimit:3.25;" d="M 336.601563 23.113281 L 336.601563 12.3125 L 347.398438 12.3125 L 347.398438 23.113281 Z M 336.601563 23.113281 "/>
<path style="fill-rule:nonzero;fill:rgb(0%,0%,0%);fill-opacity:1;stroke-width:1;stroke-linecap:square;stroke-linejoin:miter;stroke:rgb(0%,0%,0%);stroke-opacity:1;stroke-miterlimit:3.25;" d="M 325.800781 36.613281 L 325.800781 25.8125 L 336.601563 25.8125 L 336.601563 36.613281 Z M 325.800781 36.613281 "/>
<path style="fill:none;stroke-width:1;stroke-linecap:square;stroke-linejoin:miter;stroke:rgb(61.802673%,61.802673%,61.802673%);stroke-opacity:1;stroke-miterlimit:3.25;" d="M 325.800781 36.613281 L 325.800781 25.8125 L 336.601563 25.8125 L 336.601563 36.613281 Z M 325.800781 36.613281 "/>
<path style="fill:none;stroke-width:1;stroke-linecap:square;stroke-linejoin:miter;stroke:rgb(79.998779%,79.998779%,79.998779%);stroke-opacity:1;stroke-miterlimit:3.25;" d="M 7.199219 42.011719 L 7.199219 6.910156 "/>
<path style="fill:none;stroke-width:1;stroke-linecap:square;stroke-linejoin:miter;stroke:rgb(79.998779%,79.998779%,79.998779%);stroke-opacity:1;stroke-miterlimit:3.25;" d="M 50.398438 42.011719 L 50.398438 6.910156 "/>
<path style="fill:none;stroke-width:1;stroke-linecap:square;stroke-linejoin:miter;stroke:rgb(79.998779%,79.998779%,79.998779%);stroke-opacity:1;stroke-miterlimit:3.25;" d="M 93.601563 42.011719 L 93.601563 6.910156 "/>
<path style="fill:none;stroke-width:1;stroke-linecap:square;stroke-linejoin:miter;stroke:rgb(79.998779%,79.998779%,79.998779%);stroke-opacity:1;stroke-miterlimit:3.25;" d="M 136.800781 42.011719 L 136.800781 6.910156 "/>
<path style="fill:none;stroke-width:1;stroke-linecap:square;stroke-linejoin:miter;stroke:rgb(79.998779%,79.998779%,79.998779%);stroke-opacity:1;stroke-miterlimit:3.25;" d="M 180 42.011719 L 180 6.910156 "/>
<path style="fill:none;stroke-width:1;stroke-linecap:square;stroke-linejoin:miter;stroke:rgb(79.998779%,79.998779%,79.998779%);stroke-opacity:1;stroke-miterlimit:3.25;" d="M 223.199219 42.011719 L 223.199219 6.910156 "/>
<path style="fill:none;stroke-width:1;stroke-linecap:square;stroke-linejoin:miter;stroke:rgb(79.998779%,79.998779%,79.998779%);stroke-opacity:1;stroke-miterlimit:3.25;" d="M 266.398438 42.011719 L 266.398438 6.910156 "/>
<path style="fill:none;stroke-width:1;stroke-linecap:square;stroke-linejoin:miter;stroke:rgb(79.998779%,79.998779%,79.998779%);stroke-opacity:1;stroke-miterlimit:3.25;" d="M 309.601563 42.011719 L 309.601563 6.910156 "/>
<path style="fill:none;stroke-width:1;stroke-linecap:square;stroke-linejoin:miter;stroke:rgb(79.998779%,79.998779%,79.998779%);stroke-opacity:1;stroke-miterlimit:3.25;" d="M 352.800781 42.011719 L 352.800781 6.910156 "/>
<path style="fill:none;stroke-width:1;stroke-linecap:square;stroke-linejoin:miter;stroke:rgb(79.998779%,79.998779%,79.998779%);stroke-opacity:1;stroke-miterlimit:3.25;" d="M 7.199219 42.011719 L 352.800781 42.011719 "/>
<path style="fill:none;stroke-width:1;stroke-linecap:square;stroke-linejoin:miter;stroke:rgb(79.998779%,79.998779%,79.998779%);stroke-opacity:1;stroke-miterlimit:3.25;" d="M 7.199219 6.910156 L 352.800781 6.910156 "/>
</g>
</svg>
